PathFileType	4	(X/Y/Z)	subject01_walk1.trc
DataRate	CameraRate	NumFrames	NumMarkers	Units	OrigDataRate	OrigDataStartFrame	OrigNumFrames
60.00	60.00	       4	41	mm	60.00	220	       251
Frame#	Time	R.ASIS			L.ASIS			V.Sacral			R.Thigh.Upper			R.Thigh.Front			R.Thigh.Rear			L.Thigh.Upper			L.Thigh.Front			L.Thigh.Rear			R.Shank.Upper			R.Shank.Front			R.Shank.Rear			L.Shank.Upper			L.Shank.Front			L.Shank.Rear			R.Heel			R.Midfoot.Sup			R.Midfoot.Lat			R.Toe.Tip			L.Heel			L.Midfoot.Sup			L.Midfoot.Lat			L.Toe.Tip			Sternum			R.Acromium			L.Acromium			R.Bicep			L.Bicep			R.Elbow			L.Elbow			R.Wrist.Med			R.Wrist.Lat			L.Wrist.Med			L.Wrist.Lat			R.Toe.Lat			R.Toe.Med			L.Toe.Lat			L.Toe.Med			R.Temple			L.Temple			Top.Head			
		X1	Y1	Z1	X2	Y2	Z2	X3	Y3	Z3	X4	Y4	Z4	X5	Y5	Z5	X6	Y6	Z6	X7	Y7	Z7	X8	Y8	Z8	X9	Y9	Z9	X10	Y10	Z10	X11	Y11	Z11	X12	Y12	Z12	X13	Y13	Z13	X14	Y14	Z14	X15	Y15	Z15	X16	Y16	Z16	X17	Y17	Z17	X18	Y18	Z18	X19	Y19	Z19	X20	Y20	Z20	X21	Y21	Z21	X22	Y22	Z22	X23	Y23	Z23	X24	Y24	Z24	X25	Y25	Z25	X26	Y26	Z26	X27	Y27	Z27	X28	Y28	Z28	X29	Y29	Z29	X30	Y30	Z30	X31	Y31	Z31	X32	Y32	Z32	X33	Y33	Z33	X34	Y34	Z34	X35	Y35	Z35	X36	Y36	Z36	X37	Y37	Z37	X38	Y38	Z38	X39	Y39	Z39	X40	Y40	Z40	X41	Y41	Z41	

220      2.19000000	    621.21438019	   1081.17147353	    173.36804006	    620.84004357	   1072.34100935	    -86.63644709	    422.35118446	   1070.86819914	     51.02557661	    604.59258080	    755.55562054	    213.99675818	    666.47648051	    700.51535264	    116.65115872	    605.12005017	    632.81321417	    199.94870770	    645.21974683	    772.26613795	   -152.06607841	    752.63907701	    764.39286939	   -104.04928866	    685.81663261	    669.53412038	   -147.92715139	    542.40021837	    458.54523416	    183.74403469	    617.40915488	    420.57162306	    128.64523226	    550.41334852	    371.70928019	    187.39677062	    657.66783186	    492.47889618	   -149.80107882	    664.84099479	    421.35051542	    -97.34941501	    613.53912273	    472.73939543	   -152.04399862	    450.99724688	     71.08124768	     93.62631576	    595.78014609	     78.85487649	     61.65195432	    586.73869364	     63.18925023	    168.78111836	    739.54713263	     48.94687752	    104.94708621	    358.03226609	    264.89635503	    -47.26738103	    485.60894916	    154.48811908	    -30.92175825	    461.83177225	    157.59711872	   -125.83492992	    551.07718310	     62.87796849	    -64.35107097	    643.24305614	   1392.02536944	     39.06660746	    546.10282009	   1471.63044300	    254.93457714	    561.41208614	   1506.54646701	   -164.43803455	    573.91940354	   1266.92660317	    295.09170040	    570.93411375	   1268.02885305	   -203.81906024	    543.76446974	   1159.72472748	    323.47131433	    515.89790796	   1176.58380397	   -242.10318170	    718.02073535	    954.73544331	    300.44092085	    681.89502176	    932.07971931	    351.05803635	    610.97748805	    942.28936277	   -210.61234677	    565.68703562	    936.62504206	   -270.30540796	    675.16694336	     38.49049053	    183.80180913	    682.18662544	     46.96541674	     73.66270975	    489.90888772	     96.93228542	   -136.95089730	    516.08588875	     94.27530416	    -36.73167427	    685.40497543	   1636.51321824	    132.18728446	    693.77326152	   1645.93915210	     -6.95593033	    637.75706895	   1807.37683206	     74.53221115
221      2.20000000	    619.06104000	   1081.05591000	    174.39307000	    619.87585000	   1072.57300000	    -85.47517000	    421.07349000	   1071.65820000	     51.20615000	    599.01300000	    755.41174000	    214.38167000	    660.98645000	    699.98248000	    117.79147000	    597.87317000	    633.05768000	    200.70258000	    648.85748000	    774.38861000	   -151.39615000	    755.52325000	    768.04382000	   -102.23776000	    690.58862000	    672.17352000	   -146.84871000	    533.10431000	    459.20654000	    183.61183000	    608.16125000	    420.02884000	    128.41797000	    541.27258000	    371.96655000	    186.95824000	    666.83862000	    493.39917000	   -148.30585000	    676.78113000	    422.94742000	    -96.16685000	    623.13647000	    472.00345000	   -151.25266000	    440.20795000	     71.12734000	     93.51236000	    584.91718000	     78.90778000	     61.59606000	    575.64258000	     63.23636000	    168.68880000	    728.52100000	     48.72889000	    104.97929000	    375.34091000	    253.11676000	    -46.80912000	    507.61398000	    148.77571000	    -30.53487000	    484.84906000	    151.66116000	   -125.69049000	    577.75018000	     60.73360000	    -63.88387000	    643.19885000	   1392.98010000	     39.05947000	    545.51642000	   1472.58337000	    255.08173000	    560.30609000	   1506.43970000	   -163.98047000	    575.92493000	   1268.37891000	    296.05844000	    567.97174000	   1268.29370000	   -203.71782000	    545.43225000	   1160.88977000	    324.46576000	    510.82056000	   1177.35767000	   -241.98241000	    723.11810000	    958.98419000	    300.23947000	    687.86615000	    935.65948000	    350.62869000	    607.42688000	    943.59814000	   -210.42465000	    562.41791000	    937.64893000	   -269.94409000	    664.33032000	     38.73283000	    183.97739000	    670.99152000	     46.83341000	     73.57121000	    515.42682000	     92.23813000	   -136.65485000	    541.34052000	     90.32544000	    -36.37941000	    684.71631000	   1637.61670000	    131.60045000	    692.87164000	   1646.68396000	     -7.19394000	    636.28369000	   1808.02429000	     73.68827000
222      2.21000000	    617.70396049	   1081.16608866	    175.30920628	    619.53726884	   1073.43562099	    -84.45378545	    419.78799112	   1072.29509774	     51.38590040	    593.63466539	    755.24262492	    214.37627358	    655.45265393	    699.08144031	    118.44572546	    590.94110114	    633.26628598	    201.01852274	    652.16821808	    776.32258970	   -150.83156393	    758.13774031	    771.08509218	   -100.34335498	    695.43086804	    674.58194050	   -146.07106129	    524.28715625	    459.35985317	    183.55452238	    598.33207190	    419.33356316	    128.85433105	    532.18617849	    371.93431144	    186.54439319	    675.56894265	    494.10168907	   -147.32283333	    687.42582389	    423.51431715	    -95.01065774	    632.32912664	    470.87730377	   -150.53814400	    429.47448712	     71.15531101	     93.35381918	    574.00776134	     78.91550741	     61.52538964	    564.53866106	     63.27683072	    168.57155494	    717.45915799	     48.53581928	    105.00899813	    393.36386341	    240.57598652	    -46.38196911	    530.27257270	    142.77865677	    -30.36869293	    508.24565417	    145.38926042	   -125.63965650	    604.99685452	     58.64367997	    -63.73733538	    642.31167749	   1393.71303909	     38.86210235	    545.07863718	   1473.45135443	    254.98281705	    559.40305747	   1506.33014690	   -163.59722656	    576.20116440	   1269.45087208	    296.66722895	    564.86107136	   1268.50862709	   -203.98208137	    546.94020569	   1161.86986213	    325.39135068	    506.41672904	   1177.73703045	   -242.30013812	    728.20633188	    962.89402083	    299.79281077	    693.25501584	    938.96546908	    349.96653384	    604.87314611	    944.04171773	   -210.16497815	    558.52067969	    938.62997023	   -269.42865961	    652.94579165	     38.93827549	    183.97804402	    659.88160436	     46.72927801	     73.50763000	    541.46450622	     87.45719812	   -136.57474294	    567.22625028	     86.27935788	    -36.27523676	    684.18738377	   1638.27993888	    131.43612180	    692.20920128	   1647.18535289	     -7.43843928	    634.74424896	   1808.49823129	     72.71229861
223      2.22000000	    616.22856588	   1081.01826932	    176.19562123	    618.89214113	   1074.23164025	    -83.61654257	    418.45933056	   1072.78753060	     51.56348624	    588.47923008	    755.20229306	    214.74442322	    649.78730580	    697.76314328	    118.85080555	    583.76649326	    633.10673382	    201.14638832	    655.16221509	    778.07611090	   -150.31562760	    760.11868907	    774.02306957	    -98.58919382	    699.25899944	    676.75047849	   -144.96892764	    514.92423283	    459.15818148	    183.56210590	    588.37535777	    419.24810664	    129.10987960	    522.10059770	    372.06502785	    186.38905314	    683.28869990	    494.38269818	   -145.81697141	    698.27989777	    424.17614361	    -94.21370234	    641.42119885	    469.24095468	   -149.82064126	    418.25821571	     71.20125283	     93.15686738	    562.54653355	     78.86834232	     61.44571326	    552.93962995	     63.29450455	    168.43191801	    705.88016607	     48.37775616	    105.02582221	    413.04328396	    226.77382663	    -45.97122517	    554.72141050	    136.34529730	    -30.45998855	    533.05531543	    138.58335412	   -125.73466509	    633.99733734	     56.64690917	    -64.03365570	    641.18721064	   1393.83810865	     38.71889991	    544.85256983	   1474.10129557	    254.78691508	    558.53981719	   1505.98041897	   -163.77493647	    576.37482497	   1270.22999717	    296.87417850	    561.44983181	   1268.51891367	   -204.45449943	    548.36227986	   1162.67173643	    326.27943174	    502.11479520	   1177.86959389	   -242.58290179	    733.05305438	    967.18016847	    299.15919697	    698.73347617	    942.24470177	    349.29982467	    602.30581769	    944.49845274	   -210.02174551	    554.41958875	    938.79736568	   -268.29102120	    640.94835790	     38.95783133	    183.83358524	    648.39306691	     46.65618180	     73.49576165	    569.15401021	     82.52553139	   -136.79291797	    594.87903090	     82.05942434	    -36.50786835	    683.73074550	   1638.92636317	    131.28559527	    691.26002828	   1647.54414261	     -8.18982259	    633.33560127	   1808.87326574	     71.86559717
